<svg xmlns="http://www.w3.org/2000/svg" width="620" height="338" viewBox="0 0 620 338" fill="none">
  <defs>
    <linearGradient id="constellation-brand" x1="156" y1="57" x2="454" y2="296" gradientUnits="userSpaceOnUse">
      <stop stop-color="#4F46E5"/>
      <stop offset="0.53" stop-color="#7C3AED"/>
      <stop offset="1" stop-color="#06B6D4"/>
    </linearGradient>
    <linearGradient id="constellation-card" x1="65" y1="53" x2="553" y2="292" gradientUnits="userSpaceOnUse">
      <stop stop-color="#FFFFFF" stop-opacity="0.96"/>
      <stop offset="1" stop-color="#F8FAFC" stop-opacity="0.78"/>
    </linearGradient>
    <filter id="constellation-shadow" x="-24" y="-24" width="668" height="386" filterUnits="userSpaceOnUse" color-interpolation-filters="sRGB">
      <feDropShadow dx="0" dy="12" stdDeviation="12" flood-color="#312E81" flood-opacity="0.1"/>
    </filter>
  </defs>

  <rect x="1" y="1" width="618" height="336" rx="30" fill="#FFFFFF" fill-opacity="0.34" stroke="#C7D2FE" stroke-opacity="0.64"/>
  <path d="M88 234C136 179 166 152 225 159C290 168 294 235 363 222C435 208 455 128 530 100" stroke="#A5B4FC" stroke-width="2" stroke-linecap="round" stroke-dasharray="2 10"/>
  <path d="M96 120C147 92 188 101 222 129C266 165 306 157 347 126C393 92 450 87 518 133" stroke="#67E8F9" stroke-opacity="0.7" stroke-width="2" stroke-linecap="round" stroke-dasharray="2 10"/>

  <g filter="url(#constellation-shadow)">
    <g transform="translate(62 72) rotate(-5)">
      <rect width="151" height="104" rx="18" fill="url(#constellation-card)" stroke="#E0E7FF"/>
      <circle cx="31" cy="31" r="15" fill="#EDE9FE"/>
      <circle cx="31" cy="31" r="8" fill="#7C3AED"/>
      <rect x="57" y="22" width="55" height="8" rx="4" fill="#C7D2FE"/>
      <rect x="57" y="39" width="39" height="7" rx="3.5" fill="#E2E8F0"/>
      <rect x="20" y="68" width="111" height="10" rx="5" fill="#EEF2FF"/>
      <rect x="20" y="84" width="76" height="6" rx="3" fill="#E2E8F0"/>
    </g>

    <g transform="translate(410 54) rotate(6)">
      <rect width="151" height="104" rx="18" fill="url(#constellation-card)" stroke="#CFFAFE"/>
      <circle cx="31" cy="31" r="15" fill="#CFFAFE"/>
      <circle cx="31" cy="31" r="8" fill="#06B6D4"/>
      <rect x="57" y="22" width="55" height="8" rx="4" fill="#BAE6FD"/>
      <rect x="57" y="39" width="39" height="7" rx="3.5" fill="#E2E8F0"/>
      <rect x="20" y="68" width="111" height="10" rx="5" fill="#ECFEFF"/>
      <rect x="20" y="84" width="76" height="6" rx="3" fill="#E2E8F0"/>
    </g>

    <g transform="translate(403 210) rotate(-4)">
      <rect width="151" height="90" rx="18" fill="url(#constellation-card)" stroke="#E9D5FF"/>
      <circle cx="30" cy="29" r="14" fill="#F3E8FF"/>
      <circle cx="30" cy="29" r="7" fill="#8B5CF6"/>
      <rect x="55" y="21" width="56" height="8" rx="4" fill="#DDD6FE"/>
      <rect x="55" y="38" width="42" height="7" rx="3.5" fill="#E2E8F0"/>
      <rect x="20" y="65" width="86" height="7" rx="3.5" fill="#F3E8FF"/>
    </g>
  </g>

  <g transform="translate(229 74)">
    <circle cx="80" cy="80" r="79" fill="#FFFFFF" fill-opacity="0.82" stroke="#C7D2FE" stroke-width="2"/>
    <circle cx="80" cy="80" r="57" stroke="url(#constellation-brand)" stroke-width="10" stroke-linecap="round" stroke-dasharray="227 132" transform="rotate(-38 80 80)"/>
    <circle cx="87" cy="78" r="33" stroke="url(#constellation-brand)" stroke-width="8" stroke-linecap="round" stroke-dasharray="131 76" transform="rotate(138 87 78)"/>
    <circle cx="80" cy="80" r="12" fill="url(#constellation-brand)"/>
    <circle cx="80" cy="80" r="4" fill="#FFFFFF"/>
  </g>

  <g>
    <circle cx="88" cy="234" r="9" fill="#4F46E5"/>
    <circle cx="88" cy="234" r="16" stroke="#C7D2FE" stroke-width="2"/>
    <circle cx="225" cy="159" r="8" fill="#06B6D4"/>
    <circle cx="225" cy="159" r="15" stroke="#A5F3FC" stroke-width="2"/>
    <circle cx="363" cy="222" r="8" fill="#7C3AED"/>
    <circle cx="363" cy="222" r="15" stroke="#DDD6FE" stroke-width="2"/>
    <circle cx="530" cy="100" r="9" fill="#06B6D4"/>
    <circle cx="530" cy="100" r="16" stroke="#A5F3FC" stroke-width="2"/>
  </g>
</svg>
